<svg fill="none" height="144" viewBox="0 0 143 144" width="143" xmlns="http://www.w3.org/2000/svg" xmlns:xlink="http://www.w3.org/1999/xlink"><linearGradient id="a"><stop offset="0" stop-color="#4158d0"/><stop offset=".463542" stop-color="#c850c0"/><stop offset="1" stop-color="#ffcc70"/></linearGradient><linearGradient id="b" gradientUnits="userSpaceOnUse" x1="10.2861" x2="73.9828" xlink:href="#a" y1="109.688" y2="97.9992"/><linearGradient id="c" gradientUnits="userSpaceOnUse" x1="64.3882" x2="134.395" xlink:href="#a" y1="109.688" y2="95.465"/><linearGradient id="d" gradientUnits="userSpaceOnUse" x1="120.143" x2="152.789" xlink:href="#a" y1="109.688" y2="106.692"/><path d="m48.192 38.608v45.888c0 7.104-2.016 12.576-6.048 16.416-3.968 3.84-9.344 5.76-16.128 5.76-7.104 0-12.8-2.016-17.088-6.048s-6.432-9.76-6.432-17.184h16.32c0 2.816.576 4.96 1.728 6.432 1.152 1.408 2.816 2.112 4.992 2.112 1.984 0 3.52-.64 4.608-1.92s1.632-3.136 1.632-5.568v-45.888z" fill="url(#b)"/><path d="m83.336 106.768c-5.248 0-9.984-1.12-14.208-3.36-4.16-2.24-7.456-5.44-9.888-9.6-2.368-4.16-3.552-9.024-3.552-14.592 0-5.504 1.216-10.336 3.648-14.496 2.432-4.224 5.76-7.456 9.984-9.696s8.96-3.36 14.208-3.36 9.984 1.12 14.208 3.36 7.552 5.472 9.984 9.696c2.432 4.16 3.648 8.992 3.648 14.496s-1.248 10.368-3.744 14.592c-2.432 4.16-5.792 7.36-10.08 9.6-4.224 2.24-8.96 3.36-14.208 3.36zm0-14.208c3.136 0 5.792-1.152 7.968-3.456 2.24-2.304 3.36-5.6 3.36-9.888s-1.088-7.584-3.264-9.888c-2.112-2.304-4.736-3.456-7.872-3.456-3.2 0-5.856 1.152-7.968 3.456-2.112 2.24-3.168 5.536-3.168 9.888 0 4.288 1.024 7.584 3.072 9.888 2.112 2.304 4.736 3.456 7.872 3.456z" fill="url(#c)"/><path d="m128.632 106.768c-2.88 0-5.248-.832-7.104-2.496-1.792-1.728-2.688-3.84-2.688-6.336 0-2.56.896-4.704 2.688-6.432 1.856-1.728 4.224-2.592 7.104-2.592 2.816 0 5.12.864 6.912 2.592 1.856 1.728 2.784 3.872 2.784 6.432 0 2.496-.928 4.608-2.784 6.336-1.792 1.664-4.096 2.496-6.912 2.496z" fill="url(#d)"/></svg>