<svg fill="none" height="1940" viewBox="0 0 1843 1940" width="1843" xmlns="http://www.w3.org/2000/svg" xmlns:xlink="http://www.w3.org/1999/xlink"><linearGradient id="a" gradientUnits="userSpaceOnUse" x1="1351.28" x2="319.521" y1="1360.8" y2="1010.63"><stop offset="0" stop-color="#1c25ff"/><stop offset="1" stop-color="#db00ff"/></linearGradient><linearGradient id="b" gradientUnits="userSpaceOnUse" x1="514.791" x2="781.36" y1="390.643" y2="1900.55"><stop offset="0" stop-color="#db00ff"/><stop offset="1" stop-color="#ffc200"/></linearGradient><g clip-rule="evenodd" fill-rule="evenodd"><path d="m1042.78 1462.29c-103.965 25.13-215.309-45.61-314.305-110.96-89.207-58.9-181.437-131.88-207.194-233.33-23.999-94.52 37.564-171.732 85.556-245.757 38.944-60.07 93.584-99.04 158.078-130.033 83.622-40.186 168.842-116.427 262.135-71.905 94.48 45.087 112.62 170.168 150 268.588 37.03 97.487 85.68 195.947 61.79 289.057-27.33 106.56-90.62 208.85-196.06 234.34z" fill="url(#a)"/><path d="m922.24 928.187c51.71 58.143 46.335 139.563 52.885 217.873 7.083 84.7 33.545 169.45-13.883 248.44-58.444 97.34-148.54 196.7-264.062 214.5-116.642 17.97-228.682-43.84-287.903-129.46-49.868-72.09 25.634-171.77 18.17-260.5-8.276-98.4-117.294-182.57-63.193-274.765 56.483-96.254 193.249-136.945 306.707-140.216 103.834-2.994 189.194 54.319 251.279 124.128z" fill="url(#b)"/><g fill="#fff" fill-opacity=".16"><path d="m994.749 686.948c38.001-120.313 162.321-156.88 256.511-212.348 90.12-53.065 188.74-133.04 266.82-95.82 76.89 36.657 74.25 168.631 97.44 269.464 23.14 100.659 80.09 197.235 35.28 307.658-44.98 110.848-153.34 147.008-241.85 201.388-87.33 53.67-185.95 148.74-259.09 106.42-72.15-41.74-30.66-192.8-56.54-289.012-28-104.141-136.36-168.093-98.571-287.75z"/><path d="m1155.13 1426.3c-30.67 72.88-134.91 65.9-213.599 79.69-75.275 13.2-157.42 42.69-223.546-3.06-65.128-45.05-64.341-135.08-84.962-210.37-20.585-75.16-69.575-156.25-33.063-220.57 36.651-64.57 127.47-61.43 201.381-75.951 72.928-14.324 154.898-54.197 216.939-6.217 61.18 47.318 27.91 140.428 50.74 213.238 24.71 78.81 116.62 150.76 86.11 223.24z"/></g></g></svg>